<svg width="348" height="109" viewBox="0 0 348 109" fill="none" xmlns="http://www.w3.org/2000/svg">
<g clip-path="url(#clip0_148_157)">
<path d="M61.1407 59.4247C60.0971 59.4999 59.9875 60.9811 58.0906 62.6648C55.9687 64.5221 54.141 64.4006 54.0545 65.2685C53.9334 66.5529 57.8426 67.9011 59.6127 68.5086C60.8639 68.9367 64.8019 70.2443 72.5166 70.8229C73.3872 70.8924 77.7577 71.2395 77.8038 70.9097C77.8038 70.7188 76.2989 70.5221 74.4885 69.9203C73.4622 69.5848 68.1461 67.8316 64.4502 63.1797C62.7378 61.0274 62.265 59.3437 61.1407 59.4247Z" fill="url(#paint0_linear_148_157)"/>
<path d="M325.317 46.2556C325.317 46.2556 331.66 33.7522 326.471 23.5574C321.806 14.433 314.063 7.43206 300.922 7.47256C290.325 7.50728 283.464 14.948 282.051 16.597C280.517 18.379 274.273 26.7628 275.847 38.0859C277.548 50.3404 287.309 56.3578 288.641 57.1794C289.973 58.001 299.625 62.3231 307.467 59.8178C308.783 59.4976 310.018 58.9003 311.087 58.0654C312.157 57.2305 313.037 56.1771 313.671 54.975C315.17 52.1457 314.512 45.9316 310.528 44.2942C306.677 42.7146 300.922 47.3665 305.916 52.0299C306.238 52.3308 308.026 52.5507 308.026 52.5507C307.813 52.9846 305.668 54.1534 304.566 54.2864C303.315 54.4861 302.034 54.3289 300.867 53.8328C299.701 53.3366 298.697 52.5214 297.97 51.4803C295.422 47.7831 296.817 43.38 297.111 42.8014C297.261 42.5121 297.93 39.9431 302.11 38.1322C302.86 37.8024 304.676 37.5536 304.78 37.3106C302.581 36.1563 300.562 34.6845 298.789 32.9422C297.792 31.9586 294.557 29.1293 294.05 24.379C293.623 20.3289 296.166 17.164 296.673 16.0704C296.817 15.7696 299.354 22.487 301.551 25.6809C303.823 28.9846 305.541 29.2218 311.762 34.2382C316.721 38.2421 319.2 40.244 320.676 42.8014C321.31 43.8892 323.68 50.2652 321.627 56.8496C319.431 63.8969 311.583 67.137 305.685 67.6172C301.066 68.0282 296.411 67.5173 291.99 66.1141C287.568 64.7109 283.467 62.4432 279.923 59.4417C268.692 50.2768 268 38.5661 268.207 34.0241C268.38 30.136 268.72 21.5729 277.208 10.9788C278.361 9.56707 286.433 1.0907 300.646 0.51789C314.858 -0.0549158 328.177 8.82647 333.603 21.3993C334.024 22.3771 339.092 35.1119 333.026 47.8583C330.028 54.1418 325.185 59.2392 324.764 58.9499C324.562 58.8052 325.058 58.0242 325.531 55.8544C326.609 50.705 325.854 48.0955 325.317 46.2556Z" fill="url(#paint1_linear_148_157)"/>
<path d="M331.337 59.4247C330.293 59.4999 330.184 60.9811 328.287 62.6648C326.165 64.5221 324.337 64.4006 324.251 65.2685C324.13 66.5529 328.039 67.9011 329.809 68.5086C331.06 68.9367 334.998 70.2443 342.713 70.8229C343.583 70.8924 347.954 71.2395 348 70.9097C348 70.7188 346.501 70.5221 344.685 69.9203C343.658 69.5848 338.342 67.8316 334.646 63.1797C332.934 61.0274 332.49 59.3437 331.337 59.4247Z" fill="url(#paint2_linear_148_157)"/>
<path d="M57.1566 46.0935C57.1566 46.0935 63.499 33.5902 58.2752 23.3954C53.6107 14.271 45.8672 7.27 32.727 7.31051C22.1295 7.34522 15.2682 14.7859 13.8555 16.4349C12.3218 18.217 6.0775 26.6008 7.65156 37.918C9.35247 50.1784 19.114 56.1958 20.4459 57.0116C21.7777 57.8274 31.4354 62.1553 39.2769 59.6499C40.5933 59.3284 41.8268 58.7305 42.8961 57.8958C43.9655 57.061 44.8464 56.0084 45.4809 54.8071C46.9742 51.9778 46.317 45.7637 42.3328 44.1263C38.487 42.541 32.727 47.1929 37.7202 51.8621C38.043 52.1572 39.8362 52.3828 39.8362 52.3828C39.6171 52.8168 37.4722 53.9855 36.3767 54.1186C35.1232 54.3149 33.8399 54.1524 32.6741 53.6499C31.5084 53.1474 30.5076 52.3252 29.7864 51.2777C27.2322 47.5863 28.6333 43.1774 28.9216 42.5988C29.0772 42.3095 29.7403 39.7464 33.9205 37.9296C34.6701 37.6056 36.4863 37.351 36.5901 37.108C34.3918 35.9577 32.375 34.4876 30.6052 32.7454C29.6019 31.756 26.3673 28.9325 25.8657 24.1823C25.4333 20.1321 27.976 16.9614 28.4891 15.8737C28.6275 15.5728 31.1645 22.2903 33.3612 25.4783C35.6387 28.7878 37.3511 29.0193 43.5724 34.0415C48.531 38.0453 51.0103 40.0415 52.4921 42.5988C53.1206 43.6924 55.4903 50.0685 53.4377 56.6528C51.2409 63.7001 43.3937 66.9402 37.4953 67.4204C32.8762 67.8291 28.2222 67.3172 23.801 65.9141C19.3798 64.5111 15.2787 62.2445 11.7337 59.2449C0.501983 50.08 -0.18415 38.3693 0.0176524 33.8274C0.190626 29.9392 0.530808 21.3761 9.01805 10.7821C10.1712 9.36451 18.2433 0.893919 32.456 0.321113C46.6687 -0.251693 59.9876 8.6297 65.4132 21.2025C65.8342 22.1803 70.9023 34.9151 64.8367 47.6615C61.8327 53.945 56.9894 59.0424 56.5685 58.7473C56.3667 58.6085 56.8626 57.8274 57.3354 55.6577C58.4482 50.5429 57.6929 47.9219 57.1566 46.0935Z" fill="url(#paint3_linear_148_157)"/>
<path d="M83.1602 67.5305L102.228 3.78125H117.265L137.607 67.5305H121.088L115.229 48.6742H96.5771L91.0535 67.5074L83.1602 67.5305ZM98.9757 40.5739H112.681L105.497 17.7369L98.9757 40.5739Z" fill="black"/>
<path d="M149.392 12.3676V3.78125H196.123L169.411 58.95H194.503V67.5305H147.893L174.507 12.3676H149.392Z" fill="black"/>
<path d="M206.145 67.5305L225.212 3.78125H240.238L260.591 67.5305H244.072L238.214 48.6742H219.562L214.038 67.5074L206.145 67.5305ZM221.972 40.5739H235.683L228.493 17.7369L221.972 40.5739Z" fill="black"/>
<path d="M83.1602 67.5305L102.228 3.78125H117.265L137.607 67.5305H121.088L115.229 48.6742H96.5771L91.0535 67.5074L83.1602 67.5305ZM98.9757 40.5739H112.681L105.497 17.7369L98.9757 40.5739Z" fill="url(#paint4_linear_148_157)"/>
<path d="M149.392 12.3676V3.78125H196.123L169.411 58.95H194.503V67.5305H147.893L174.507 12.3676H149.392Z" fill="url(#paint5_linear_148_157)"/>
<path d="M206.145 67.5305L225.212 3.78125H240.238L260.591 67.5305H244.072L238.214 48.6742H219.562L214.038 67.5074L206.145 67.5305ZM221.972 40.5739H235.683L228.493 17.7369L221.972 40.5739Z" fill="url(#paint6_linear_148_157)"/>
<path d="M107.665 104.856H101.144V81.521H107.665V104.856Z" fill="url(#paint7_linear_148_157)"/>
<path d="M117.322 104.856V81.521H124.472L132.175 93.4574V81.521H135.669V104.856H131.881L120.764 87.8045V104.856H117.322Z" fill="url(#paint8_linear_148_157)"/>
<path d="M148.983 104.856V84.6628H142.796V81.521H161.713V84.6628H155.481V104.856H148.983Z" fill="url(#paint9_linear_148_157)"/>
<path d="M168.776 104.856V81.521H183.329V84.6628H175.297V91.4554H182.914V94.5914H175.297V101.714H183.767V104.856H168.776Z" fill="url(#paint10_linear_148_157)"/>
<path d="M192.571 104.856V81.521H201.86C204.835 81.521 207.141 82.1787 208.779 83.494C209.596 84.1553 210.245 85.0012 210.674 85.9625C211.103 86.9239 211.299 87.9734 211.247 89.0253C211.284 89.8957 211.126 90.7634 210.785 91.5644C210.443 92.3655 209.927 93.0796 209.275 93.6541C207.96 94.8113 206.182 95.3898 203.941 95.3898H198.885V104.856H192.571ZM198.914 84.4197V92.4795H200.372C201.91 92.4795 203.063 92.1845 203.832 91.5943C204.219 91.2532 204.521 90.826 204.714 90.3468C204.908 89.8675 204.986 89.3496 204.945 88.8344C204.967 88.2407 204.863 87.649 204.64 87.0984C204.418 86.5479 204.081 86.051 203.653 85.6406C202.723 84.8016 201.501 84.3632 200.251 84.4197H198.914Z" fill="url(#paint11_linear_148_157)"/>
<path d="M229.599 81.0754C231.171 81.073 232.731 81.3411 234.212 81.8681C235.709 82.3921 237.082 83.2229 238.242 84.3076C239.402 85.3923 240.325 86.7072 240.952 88.1689C241.625 89.7908 241.962 91.5328 241.944 93.2895C241.965 95.0362 241.623 96.7683 240.94 98.3753C240.316 99.8349 239.396 101.148 238.237 102.23C237.078 103.312 235.707 104.139 234.212 104.659C231.216 105.72 227.948 105.72 224.952 104.659C223.45 104.138 222.074 103.306 220.913 102.218C219.752 101.13 218.832 99.8086 218.212 98.3406C217.542 96.7201 217.209 94.9798 217.232 93.2258C217.214 91.4818 217.553 89.7527 218.229 88.1458C218.886 86.6019 219.87 85.2199 221.112 84.0956C222.217 83.1115 223.507 82.3582 224.906 81.8796C226.412 81.3391 228 81.0669 229.599 81.0754ZM224.26 93.2258C224.26 96.1496 224.737 98.4293 225.69 100.065C226.636 101.708 227.944 102.53 229.599 102.53C231.254 102.53 232.58 101.708 233.531 100.065C234.483 98.4216 234.956 96.1477 234.956 93.2258C234.956 90.3039 234.483 88.0185 233.537 86.3927C232.592 84.7668 231.283 83.9452 229.599 83.9452C227.916 83.9452 226.624 84.761 225.678 86.3927C224.733 88.0243 224.26 90.3329 224.26 93.2258Z" fill="url(#paint12_linear_148_157)"/>
<path d="M249.987 104.856V81.521H257.137L264.84 93.4574V81.521H268.334V104.856H264.546L253.429 87.8045V104.856H249.987Z" fill="url(#paint13_linear_148_157)"/>
<path d="M84.3704 103.901C84.7878 103.952 85.2099 103.952 85.6274 103.901C86.4288 103.849 86.7805 103.542 86.9823 103.658C87.2475 103.837 86.6479 104.659 86.4057 105.029C85.7162 105.914 84.9246 106.714 84.0475 107.413C83.6932 107.734 83.3067 108.017 82.8944 108.258C82.854 108.258 83.1481 107.962 83.4306 107.586C84.0134 106.843 84.3374 105.928 84.3531 104.983C84.3185 104.398 84.0533 103.866 84.3704 103.901Z" fill="url(#paint14_linear_148_157)"/>
<path d="M84.9071 81.3995C84.5275 81.325 84.1399 81.2998 83.7539 81.3242C82.9928 81.3242 82.5546 81.5788 82.422 81.4631C82.2894 81.3474 83.0274 80.5894 83.3849 80.2712C84.2807 79.5089 85.2459 78.8329 86.2678 78.2519C86.6812 77.9864 87.115 77.7542 87.5651 77.5576C87.5939 77.5576 87.2422 77.8064 86.8674 78.1362C86.1328 78.7384 85.5732 79.5278 85.2472 80.4216C85.0973 80.9597 85.1896 81.4457 84.9071 81.3995Z" fill="url(#paint15_linear_148_157)"/>
<path fill-rule="evenodd" clip-rule="evenodd" d="M83.7653 87.3183C84.0882 89.1351 86.1869 89.2392 89.0121 88.7648C88.9487 90.7204 90.0212 91.7445 93.5729 91.9065C92.8406 91.1023 91.4972 90.7493 91.8432 88.8226C92.0623 87.6654 92.8406 86.6645 92.9559 85.3916C93.4345 80.1842 80.3 78.9345 76.8117 83.8004C73.5195 88.3945 81.7934 91.8487 85.7545 94.2787C87.8129 95.5401 90.8803 97.2758 90.3671 99.8737C89.8885 102.362 84.4975 103.444 81.5627 101.725C80.3058 100.99 79.7869 99.7175 80.9862 98.6934C82.295 97.5825 83.6903 97.6693 86.1754 97.8718C85.9274 95.5574 82.4276 96.217 80.917 96.4138C81.0611 94.6317 79.7004 93.2604 76.3043 93.3241C76.829 93.8622 78.3685 94.1515 78.1436 96.217C77.9822 97.7272 73.6579 103.195 83.4482 104.317C91.0878 105.208 97.4821 100.4 91.3704 95.1813C87.2709 91.6751 79.0258 89.569 79.5159 85.461C79.8388 82.7474 85.397 81.8564 88.1185 83.2855C90.7361 84.6683 90.3267 88.0878 83.7653 87.3183Z" fill="url(#paint16_linear_148_157)"/>
</g>
<defs>
<linearGradient id="paint0_linear_148_157" x1="54.0603" y1="65.2511" x2="77.8096" y2="65.2511" gradientUnits="userSpaceOnUse">
<stop stop-color="#82611E"/>
<stop offset="0.18" stop-color="#B7833E"/>
<stop offset="0.33" stop-color="#DDC14E"/>
<stop offset="0.48" stop-color="#D3A146"/>
<stop offset="0.65" stop-color="#E0A93B"/>
<stop offset="0.83" stop-color="#966C23"/>
<stop offset="0.99" stop-color="#66480A"/>
</linearGradient>
<linearGradient id="paint1_linear_148_157" x1="268.167" y1="34.0704" x2="335.967" y2="34.0704" gradientUnits="userSpaceOnUse">
<stop stop-color="#82611E"/>
<stop offset="0.18" stop-color="#B7833E"/>
<stop offset="0.33" stop-color="#DDC14E"/>
<stop offset="0.48" stop-color="#D3A146"/>
<stop offset="0.65" stop-color="#E0A93B"/>
<stop offset="0.83" stop-color="#966C23"/>
<stop offset="0.99" stop-color="#66480A"/>
</linearGradient>
<linearGradient id="paint2_linear_148_157" x1="324.257" y1="65.2511" x2="348.006" y2="65.2511" gradientUnits="userSpaceOnUse">
<stop stop-color="#82611E"/>
<stop offset="0.18" stop-color="#B7833E"/>
<stop offset="0.33" stop-color="#DDC14E"/>
<stop offset="0.48" stop-color="#D3A146"/>
<stop offset="0.65" stop-color="#E0A93B"/>
<stop offset="0.83" stop-color="#966C23"/>
<stop offset="0.99" stop-color="#66480A"/>
</linearGradient>
<linearGradient id="paint3_linear_148_157" x1="0.000355123" y1="33.9084" x2="67.8003" y2="33.9084" gradientUnits="userSpaceOnUse">
<stop stop-color="#82611E"/>
<stop offset="0.18" stop-color="#B7833E"/>
<stop offset="0.33" stop-color="#DDC14E"/>
<stop offset="0.48" stop-color="#D3A146"/>
<stop offset="0.65" stop-color="#E0A93B"/>
<stop offset="0.83" stop-color="#966C23"/>
<stop offset="0.99" stop-color="#66480A"/>
</linearGradient>
<linearGradient id="paint4_linear_148_157" x1="83.1602" y1="35.6617" x2="260.602" y2="35.6617" gradientUnits="userSpaceOnUse">
<stop stop-color="#82611E"/>
<stop offset="0.18" stop-color="#B7833E"/>
<stop offset="0.33" stop-color="#DDC14E"/>
<stop offset="0.48" stop-color="#D3A146"/>
<stop offset="0.65" stop-color="#E0A93B"/>
<stop offset="0.83" stop-color="#966C23"/>
<stop offset="0.99" stop-color="#66480A"/>
</linearGradient>
<linearGradient id="paint5_linear_148_157" x1="83.1601" y1="35.6617" x2="260.602" y2="35.6617" gradientUnits="userSpaceOnUse">
<stop stop-color="#82611E"/>
<stop offset="0.18" stop-color="#B7833E"/>
<stop offset="0.33" stop-color="#DDC14E"/>
<stop offset="0.48" stop-color="#D3A146"/>
<stop offset="0.65" stop-color="#E0A93B"/>
<stop offset="0.83" stop-color="#966C23"/>
<stop offset="0.99" stop-color="#66480A"/>
</linearGradient>
<linearGradient id="paint6_linear_148_157" x1="83.1603" y1="35.6617" x2="260.602" y2="35.6617" gradientUnits="userSpaceOnUse">
<stop stop-color="#82611E"/>
<stop offset="0.18" stop-color="#B7833E"/>
<stop offset="0.33" stop-color="#DDC14E"/>
<stop offset="0.48" stop-color="#D3A146"/>
<stop offset="0.65" stop-color="#E0A93B"/>
<stop offset="0.83" stop-color="#966C23"/>
<stop offset="0.99" stop-color="#66480A"/>
</linearGradient>
<linearGradient id="paint7_linear_148_157" x1="101.144" y1="93.2433" x2="268.334" y2="93.2433" gradientUnits="userSpaceOnUse">
<stop stop-color="#82611E"/>
<stop offset="0.18" stop-color="#B7833E"/>
<stop offset="0.33" stop-color="#DDC14E"/>
<stop offset="0.48" stop-color="#D3A146"/>
<stop offset="0.65" stop-color="#E0A93B"/>
<stop offset="0.83" stop-color="#966C23"/>
<stop offset="0.99" stop-color="#66480A"/>
</linearGradient>
<linearGradient id="paint8_linear_148_157" x1="101.143" y1="93.2433" x2="268.334" y2="93.2433" gradientUnits="userSpaceOnUse">
<stop stop-color="#82611E"/>
<stop offset="0.18" stop-color="#B7833E"/>
<stop offset="0.33" stop-color="#DDC14E"/>
<stop offset="0.48" stop-color="#D3A146"/>
<stop offset="0.65" stop-color="#E0A93B"/>
<stop offset="0.83" stop-color="#966C23"/>
<stop offset="0.99" stop-color="#66480A"/>
</linearGradient>
<linearGradient id="paint9_linear_148_157" x1="101.144" y1="93.2433" x2="268.334" y2="93.2433" gradientUnits="userSpaceOnUse">
<stop stop-color="#82611E"/>
<stop offset="0.18" stop-color="#B7833E"/>
<stop offset="0.33" stop-color="#DDC14E"/>
<stop offset="0.48" stop-color="#D3A146"/>
<stop offset="0.65" stop-color="#E0A93B"/>
<stop offset="0.83" stop-color="#966C23"/>
<stop offset="0.99" stop-color="#66480A"/>
</linearGradient>
<linearGradient id="paint10_linear_148_157" x1="101.144" y1="93.2433" x2="268.334" y2="93.2433" gradientUnits="userSpaceOnUse">
<stop stop-color="#82611E"/>
<stop offset="0.18" stop-color="#B7833E"/>
<stop offset="0.33" stop-color="#DDC14E"/>
<stop offset="0.48" stop-color="#D3A146"/>
<stop offset="0.65" stop-color="#E0A93B"/>
<stop offset="0.83" stop-color="#966C23"/>
<stop offset="0.99" stop-color="#66480A"/>
</linearGradient>
<linearGradient id="paint11_linear_148_157" x1="101.143" y1="93.2433" x2="268.334" y2="93.2433" gradientUnits="userSpaceOnUse">
<stop stop-color="#82611E"/>
<stop offset="0.18" stop-color="#B7833E"/>
<stop offset="0.33" stop-color="#DDC14E"/>
<stop offset="0.48" stop-color="#D3A146"/>
<stop offset="0.65" stop-color="#E0A93B"/>
<stop offset="0.83" stop-color="#966C23"/>
<stop offset="0.99" stop-color="#66480A"/>
</linearGradient>
<linearGradient id="paint12_linear_148_157" x1="101.143" y1="93.2432" x2="268.334" y2="93.2432" gradientUnits="userSpaceOnUse">
<stop stop-color="#82611E"/>
<stop offset="0.18" stop-color="#B7833E"/>
<stop offset="0.33" stop-color="#DDC14E"/>
<stop offset="0.48" stop-color="#D3A146"/>
<stop offset="0.65" stop-color="#E0A93B"/>
<stop offset="0.83" stop-color="#966C23"/>
<stop offset="0.99" stop-color="#66480A"/>
</linearGradient>
<linearGradient id="paint13_linear_148_157" x1="101.143" y1="93.2433" x2="268.334" y2="93.2433" gradientUnits="userSpaceOnUse">
<stop stop-color="#82611E"/>
<stop offset="0.18" stop-color="#B7833E"/>
<stop offset="0.33" stop-color="#DDC14E"/>
<stop offset="0.48" stop-color="#D3A146"/>
<stop offset="0.65" stop-color="#E0A93B"/>
<stop offset="0.83" stop-color="#966C23"/>
<stop offset="0.99" stop-color="#66480A"/>
</linearGradient>
<linearGradient id="paint14_linear_148_157" x1="82.8944" y1="105.966" x2="87.0457" y2="105.966" gradientUnits="userSpaceOnUse">
<stop stop-color="#82611E"/>
<stop offset="0.18" stop-color="#B7833E"/>
<stop offset="0.33" stop-color="#DDC14E"/>
<stop offset="0.48" stop-color="#D3A146"/>
<stop offset="0.65" stop-color="#E0A93B"/>
<stop offset="0.83" stop-color="#966C23"/>
<stop offset="0.99" stop-color="#66480A"/>
</linearGradient>
<linearGradient id="paint15_linear_148_157" x1="82.3759" y1="79.5248" x2="87.5651" y2="79.5248" gradientUnits="userSpaceOnUse">
<stop stop-color="#82611E"/>
<stop offset="0.18" stop-color="#B7833E"/>
<stop offset="0.33" stop-color="#DDC14E"/>
<stop offset="0.48" stop-color="#D3A146"/>
<stop offset="0.65" stop-color="#E0A93B"/>
<stop offset="0.83" stop-color="#966C23"/>
<stop offset="0.99" stop-color="#66480A"/>
</linearGradient>
<linearGradient id="paint16_linear_148_157" x1="76.0795" y1="92.6008" x2="93.8612" y2="92.6008" gradientUnits="userSpaceOnUse">
<stop stop-color="#82611E"/>
<stop offset="0.18" stop-color="#B7833E"/>
<stop offset="0.33" stop-color="#DDC14E"/>
<stop offset="0.48" stop-color="#D3A146"/>
<stop offset="0.65" stop-color="#E0A93B"/>
<stop offset="0.83" stop-color="#966C23"/>
<stop offset="0.99" stop-color="#66480A"/>
</linearGradient>
<clipPath id="clip0_148_157">
<rect width="348" height="108" fill="white" transform="translate(0 0.280762)"/>
</clipPath>
</defs>
</svg>
